<?xml version="1.0" encoding="UTF-8"?>
<svg id="_レイヤー_1" data-name="レイヤー_1" xmlns="http://www.w3.org/2000/svg" xmlns:xlink="http://www.w3.org/1999/xlink" viewBox="0 0 640 300">
  <defs>
    <style>
      .cls-1 {
        filter: url(#drop-shadow-1);
      }

      .cls-2 {
        fill: #fff;
      }

      .cls-3 {
        fill: #d00061;
      }

      .cls-4 {
        fill: #00568c;
      }

      .cls-5 {
        fill: #f1d100;
      }
    </style>
    <filter id="drop-shadow-1" x="36" y="24" width="591" height="256" filterUnits="userSpaceOnUse">
      <feOffset dx="8" dy="9"/>
      <feGaussianBlur result="blur" stdDeviation="6"/>
      <feFlood flood-color="#000" flood-opacity=".97"/>
      <feComposite in2="blur" operator="in"/>
      <feComposite in="SourceGraphic"/>
    </filter>
  </defs>
  <g class="cls-1">
    <polygon class="cls-4" points="600.92 188.11 535.54 192.95 585.29 213.04 513.18 210.7 544.05 233.26 472.28 223.97 481.25 246.79 416.84 231.46 403.03 252.31 352.29 232.44 317.05 249.27 284.94 226.8 231.73 237.98 221.39 215.11 155.41 219.53 167.86 198.51 95.57 195.74 129.59 178.61 58.07 168.93 110.33 157.38 46.57 141.73 111.95 136.88 62.2 116.8 134.31 119.13 103.44 96.57 175.21 105.86 166.24 83.04 207.76 156.72 247 119.09 296.19 120.16 334.47 111.86 370.65 127.34 415.76 91.85 426.1 114.72 492.08 110.3 479.63 131.33 551.92 134.09 517.9 151.22 589.42 160.9 537.16 172.45 600.92 188.11"/>
    <g>
      <text/>
      <text/>
      <text/>
      <path class="cls-2" d="M462.62,191.75c-2.34.08-4.75-.38-6.62-1.26l-2.47-1.17-.15-4.29-9.4.32v-.36c-1.24.49-2.61.78-4.1.83-.89.03-3.92.03-6.86-1.22-1.87.99-4.26,1.61-6.6,1.69-2.16.07-4.14-.33-5.86-1.14l.03,1-10.19.35c-.77.25-1.58.39-2.41.42-4.95.17-9.1-3.68-10.3-9.14-1.05,5.63-5.26,9.67-10.74,9.86-1.37.05-2.7-.14-3.92-.56l-7.42,1.7-.04-1.25c-1.27.37-2.64.59-3.99.64-3.71.13-6.89-1.16-9.1-3.46l-.91,3.47-19.18.66-5.07-15.06-1.62,4.61,4.56,4.87-2.28,5.68-2.59.15-8.24.28-.26-.27c-1.26.45-2.65.7-4.16.76-6.91.24-10.76-3.94-11.86-8.6l-3.55-.76.33,9.55-13.63.47-.04-1.04c-1.6.94-3.47,1.49-5.5,1.56-2.32.08-4.46-.48-6.28-1.55l-1.12.63c-1.37.78-3.24,1.28-5.02,1.34-2,.07-3.85-.42-5.38-1.4l-.5.35c-1.5,1.04-3.29,1.31-4.52,1.35-1.16.04-2.23-.1-3.22-.43-1.07.43-2.21.68-3.38.72-2.05.07-3.89-.44-5.46-1.53-.29-.2-.56-.42-.81-.64l.07,2.05-18.95.65c-.77.25-1.56.39-2.37.42-2.23.08-4.35-.68-6.01-2.13-1.76,1.55-4.15,2.48-6.95,2.58-.6.02-2.15.03-4-.35v.15s-10.81.37-10.81.37c-.77.25-1.56.39-2.37.42-1.19.04-2.34-.15-3.41-.57v.35s-30.32,1.04-30.32,1.04l-1.08-31.42,8.51-.29-.04-1.22,21.82-.75.28,8.28,16.59-.57v.41c1.25-.53,2.63-.84,4.13-.89,1.26-.04,2.6.08,3.89.34v-.14s27.54-.95,27.54-.95c.65-.2,1.33-.32,2.02-.34.81-.03,1.52.09,1.87.17l1.73.37c1.45-.52,3.06-.83,4.64-.88,1.23-.04,2.77.06,4.33.55v-.36s1.95-.07,1.95-.07l-.1-3.01,13.54-3.11.19,5.65,3.18-.11.03.74c1.47-.74,3.13-1.18,4.91-1.24,2.03-.07,3.93.36,5.59,1.18l-.04-1.04,10.93-.38c.65-.2,1.33-.32,2.02-.34.81-.03,1.52.09,1.87.17l3.28.7.25,7.37c.26-.57.57-1.11.92-1.63-.36-1.08-.57-2.22-.61-3.36-.21-6.04,4.15-10.75,10.14-10.96,5.42-.19,9.89,3.6,10.73,8.83l2.15-.07-.59-1.75,33.1-1.14c.84-.25,1.73-.39,2.64-.43,1.79-.06,3.37.28,4.75.93l-.31-9.03,13.63-.47.28,8.01c4.87.41,8.2,4.53,9.24,9.19.91-4.9,4.19-8.68,8.51-9.68l-.28-8.13,13.63-.47.32,9.26c1.5-.9,3.22-1.43,5.07-1.49,2.92-.1,5.3.88,7.11,2.49,1.77-1.78,4.28-2.88,7.22-2.99,1.24-.04,2.57.08,3.85.33-.01-.14-.02-.29-.03-.43-.15-4.32,2.85-7.93,6.68-8.06s7.07,3.27,7.22,7.59c.01.41,0,.82-.04,1.21,1.47-.85,3.16-1.35,4.99-1.42,1.3-.04,2.57.15,3.81.57l7.54-1.75.04,1.13,5.38-.18c.74-.23,1.54-.39,2.42-.42,2.39-.08,4.71.84,6.37,2.53.08.08.15.16.23.24,1.91-1.94,4.45-3.15,7.3-3.25,1.77-.06,3.35.28,4.72.91l-.03-.74,10.93-.38c.65-.2,1.33-.32,2.02-.34.81-.03,1.52.09,1.87.17l3.28.7.52,15.16-4.48-.96.33,9.55-13.64.47v-.16c-1.27.37-2.63.59-3.97.63-2.14.07-4.1-.32-5.8-1.11l.03.98-17.54.6c-1.53,4.41-5.36,7.22-10.55,7.4Z"/>
      <path class="cls-2" d="M80.96,81l34.76-11.69,10.03,21.11-1.8-23.87,25.7-8.64,10.47,21.52-1.95-24.38,34.05-11.45,3.31,48.91c5.79-3.62,13.28-5.83,20.62-6.08,9.06-.31,17.1,2.37,22.65,7.55,2.55,2.34,4.58,5.14,6.09,8.42,4.8-6.11,12.21-9.88,21.19-10.18,5.5-.19,14.01.97,21.4,4.8l4.7,2.43.2,5.91c4.34-3.76,10.06-6.01,16.71-6.24,3.53-.12,8.4.36,13.34,1.84l-1.39-40.36,33.85-1.16,1.04,30.16c1.23-.27,2.53-.44,3.88-.49,3.26-.11,6.41.49,9.38,1.8,3.22.9,6.07,2.68,8.36,5.06-.18-1.25-.25-2.54-.22-3.86.25-10.31,7.1-18.61,15.59-18.9.33-.01.67-.01,1.01,0,3.76.15,7.35,1.88,10.14,4.82,2.79-5.87,7.95-9.84,13.84-10.04.65-.02,1.31,0,1.96.07,5.8.62,10.62,4.84,13.12,10.67,2.27-1.64,4.91-2.62,7.73-2.72.55-.02,1.11,0,1.67.05,2.73.25,5.25,1.32,7.41,3,2.74-6,7.94-10.07,13.9-10.28.64-.02,1.29,0,1.93.07,2.05.22,3.98.89,5.73,1.92,2.89-6.13,8.24-10.24,14.49-10.45.44-.02.88-.01,1.32.01,3.27.19,6.28,1.46,8.82,3.53,3.05-5.4,7.99-8.98,13.59-9.17.34-.01.69-.01,1.04,0,4.96.19,9.31,2.87,12.34,7.08,2.94-7.24,8.68-12.11,15.26-12.34.84-.03,1.7.02,2.53.15,4.95.75,9.35,4.18,12.05,9.41,2.33,4.5,3.27,10.04,2.65,15.59-.47,4.22-1.78,8.04-3.69,11.18l1.97.3-9.03,81.14-19.73-2.99-.05,2.22-24.74-.97-.03.76-25.76-1.46-.1,1.26-21.86-2.32-.32,5.09-31.04-2.8.04-.59-13.58-1.46-.08,3.57-31.53-1.26.03-1.39-50.01,1.72c-4.1,2.82-9.16,4.48-14.89,4.68-5.37.18-13.52-.94-20.27-4.64l-4.53-2.48-.05-1.31c-4.69,3.99-10.87,6.38-18.03,6.62-5.3.18-13.1-.81-19.95-4.04-3.02,1.68-6.79,2.66-10.9,2.8s-7.98-.61-11.33-2.24c-3.67,2.02-7.7,3.14-11.88,3.29-5.88.2-11.11-1.38-15.55-4.7l-29.58,9.94-5.64-11.61,1.01,13.17-30.91,10.39-52.53-105.4Z"/>
      <path d="M93.28,86.67l18.36-6.17,15.05,31.66c3.64,7.63,7.38,15.66,10.78,23.09l.17-.06c-.76-8.31-1.52-17.63-2.15-26.13l-2.69-35.67,12.83-4.31,15.23,31.31c3.76,7.74,7.55,15.6,11.11,23.27l.17-.06c-.82-8.87-1.59-17.89-2.29-26.66l-2.8-35.06,17.68-5.94,6.84,101.13-18.53,6.23-10.44-21.49c-3.79-7.87-7.4-15.37-10.99-23.16l-.17.06c.82,8.87,1.59,17.89,2.26,26.53l1.84,23.95-18.1,6.09-44.15-88.58ZM225.81,155.05c-3.32,2.85-7.34,4.61-11.98,4.76-4.27.15-8-.97-11.13-3.47-3.81-3.1-6.25-7.87-6.47-14.45s1.97-11.76,4.99-14.85c3.48-3.6,8.37-4.89,12.92-5.05,2.56-.09,4.85.21,7.14.75l-.03-.87c-.06-1.86-.49-3.22-1.48-4.43-1.48-1.69-3.87-2.11-6.33-2.02-4.93.17-9.6,2.32-13.41,4.57l-.66-19.13c3.9-2.5,10.08-4.82,17.1-5.06,6.73-.23,12.96,1.54,17.08,5.38,4.31,3.96,6.12,9.62,6.38,17.32l.61,17.64c.09,2.48.8,3.95,2.51,3.89.66-.02,1.41-.3,2.15-.82l.58,16.89c-1.94,1.56-5.13,2.54-8.73,2.66-3.89.13-7.81-.73-11.04-3.72h-.19ZM221.7,134.8c-.86-.22-2.1-.3-2.76-.28-2.46.08-4.7,1.41-4.59,4.63.1,2.98,2.14,4.28,4.32,4.2,1.14-.04,2.36-.45,3.29-.98l-.26-7.58ZM249.36,138.46c6.75,4.43,14.44,5.99,17.74,5.88,2.08-.07,3.1-.79,3.04-2.38-.11-3.07-3.9-2.25-10.39-4.42-8.34-2.79-12.25-7.88-12.53-15.95-.33-12.05,7.92-19.61,19.19-20,5.12-.18,12.1,1.06,17.67,3.94l.6,17.5c-6.75-4.32-13.92-5.89-17.13-5.78-2.08.07-2.92.9-2.87,2.26.1,2.84,3.63,2.04,10.21,4.2,8.34,2.78,12.41,7.42,12.7,15.95.34,12.5-8.17,19.96-19.7,20.36-5.03.17-12.27-.94-17.93-4.05l-.6-17.5ZM293.86,142.15c6.16,4.05,13.19,5.47,16.19,5.36,1.9-.07,2.83-.72,2.78-2.17-.1-2.8-3.56-2.06-9.49-4.04-7.62-2.54-11.18-7.2-11.44-14.57-.3-11,7.23-17.91,17.52-18.26,4.67-.16,11.05.97,16.13,3.6l.55,15.98c-6.16-3.94-12.71-5.38-15.64-5.28-1.9.07-2.67.82-2.62,2.06.09,2.59,3.31,1.86,9.33,3.83,7.62,2.54,11.33,6.78,11.6,14.56.31,11.42-7.46,18.23-17.99,18.59-4.59.16-11.2-.86-16.37-3.7l-.55-15.98ZM329.67,69.68l17.25-.59,1.21,35.17.18.11c2.61-2.72,6.69-5.72,11.83-5.89,4.7-.16,8.7,1.99,11.25,4.99,2.91,3.44,4.48,8.42,4.76,16.64l1.21,35.28-17.25.59-1.09-31.86c-.09-2.51-.59-4.32-1.4-5.32-.91-1.11-2.06-1.53-3.37-1.48-2,.07-4.14,1.29-5.56,3.16l1.23,35.85-17.25.59-3-87.23ZM385.64,108.61l14.91.59-1.15,48.55-14.91-.59,1.15-48.55ZM393.73,82.56c4.37.17,7.73,4.85,7.59,10.48-.13,5.62-3.71,10.03-8.08,9.85s-7.73-4.85-7.59-10.48c.13-5.62,3.71-10.03,8.08-9.85ZM409.33,103.88l15.48,1.67-3.88,50.37-15.48-1.67,3.88-50.37ZM419.18,77.38c4.54.49,7.77,5.58,7.32,11.42-.45,5.84-4.41,10.16-8.94,9.67-4.54-.49-7.77-5.59-7.32-11.42.45-5.84,4.41-10.16,8.95-9.67ZM432.98,110.28l14.46,1.31-2.98,47.06-14.46-1.3,2.98-47.07ZM441.82,85.39c4.24.38,7.32,5.09,6.97,10.54-.35,5.45-3.98,9.55-8.22,9.17-4.24-.38-7.32-5.09-6.98-10.54.35-5.45,3.98-9.55,8.22-9.17ZM455.25,104.37l15.3,1.63-3.78,49.77-15.3-1.63,3.78-49.77ZM464.95,78.17c4.48.48,7.68,5.51,7.25,11.27s-4.35,10.04-8.83,9.57c-4.48-.48-7.68-5.51-7.25-11.27s4.35-10.04,8.83-9.57ZM477.15,99.51l17.16.97-2.07,55.86-17.17-.97,2.07-55.86ZM486.85,69.68c5.03.29,8.82,5.73,8.58,12.21-.24,6.47-4.42,11.47-9.45,11.18-5.03-.29-8.82-5.73-8.58-12.21.24-6.47,4.42-11.47,9.45-11.18ZM501.09,96.19l17.17.67-1.39,59.84-17.17-.67,1.39-59.84ZM510.43,64.05c5.03.2,8.89,5.95,8.73,12.88-.16,6.93-4.28,12.37-9.31,12.17-5.03-.2-8.89-5.95-8.73-12.88.16-6.93,4.28-12.37,9.31-12.17ZM527.45,91.51l17.04,2.58-6.96,62.53-17.05-2.58,6.96-62.53ZM539.75,58.87c4.99.76,8.3,7.2,7.49,14.45s-5.42,12.49-10.41,11.73c-4.99-.76-8.3-7.2-7.49-14.45s5.42-12.49,10.41-11.73ZM349.66,105.77c-2.84-5.81-9.35-7.92-14.54-4.72-5.19,3.2-7.09,10.51-4.25,16.32,2.84,5.81,9.35,7.92,14.54,4.72,5.19-3.2,7.09-10.51,4.25-16.32ZM375.23,111.88c.41-6.2-3.93-11.67-9.71-12.21s-10.8,4.03-11.21,10.23,3.93,11.67,9.71,12.21c5.78.55,10.8-4.03,11.21-10.23ZM371.08,106.36c-.86-1.76-2.84-2.41-4.41-1.43s-2.15,3.19-1.29,4.95,2.84,2.41,4.41,1.43,2.15-3.19,1.29-4.95ZM340.26,113.83c-.86-1.76-2.84-2.41-4.41-1.43s-2.15,3.19-1.29,4.95,2.84,2.41,4.41,1.43c1.57-.97,2.15-3.19,1.29-4.95Z"/>
      <path d="M170.9,167.98l5.55-.19.76,22.03-5.55.19-.76-22.03ZM179.37,166.47l5.33-.18.8,23.25-5.33.18-.8-23.25ZM187.55,166.19l5.33-.18.8,23.25-5.33.18-.8-23.25ZM204.95,187.62c-.94.92-2.18,1.66-3.72,1.71-1.45.05-2.66-.52-3.44-1.25-.98-.94-1.45-2.33-1.53-4.58l-.32-9.31,5.33-.18.29,8.52c.03.79.17,1.15.43,1.42.28.29.63.4,1.01.39.62-.02,1.28-.38,1.75-.91l-.33-9.53,5.33-.18.51,14.97-5.22.18-.04-1.22-.05-.03ZM212.69,183c2.09,1.18,4.48,1.58,5.5,1.55.65-.02.96-.22.95-.64-.03-.82-1.21-.6-3.22-1.17-2.59-.73-3.79-2.09-3.87-4.26-.08-3.23,2.49-5.27,5.99-5.39,1.59-.05,3.76.27,5.48,1.03l.16,4.69c-2.09-1.15-4.31-1.56-5.31-1.52-.65.02-.91.24-.9.61.03.76,1.12.54,3.17,1.11,2.59.73,3.84,1.97,3.92,4.25.09,3.35-2.57,5.36-6.15,5.48-1.56.05-3.81-.23-5.56-1.06l-.16-4.69ZM235.09,186.58c-.94.92-2.18,1.66-3.72,1.71-1.45.05-2.66-.52-3.44-1.25-.98-.94-1.45-2.33-1.53-4.58l-.32-9.31,5.33-.18.29,8.52c.03.79.17,1.15.43,1.42.28.29.63.4,1.01.39.62-.02,1.28-.38,1.75-.91l-.33-9.53,5.33-.18.51,14.97-5.22.18-.04-1.22-.05-.03ZM242.7,172.58l5.22-.18.06,1.61.05.03c.82-1.16,2.01-1.99,3.46-2.04.35-.01.73.04.97.09l.19,5.54c-.49-.11-1.03-.15-1.46-.13-1.13.04-2.09.38-2.95,1.35l.29,8.52-5.33.18-.51-14.97ZM262.31,186.17c-.95.7-2.09,1.14-3.41,1.18-1.21.04-2.27-.23-3.16-.84-1.08-.76-1.76-1.92-1.82-3.53s.58-2.88,1.44-3.65c.99-.89,2.39-1.21,3.68-1.25.73-.02,1.38.04,2.03.17v-.21c-.02-.46-.14-.79-.42-1.08-.42-.41-1.1-.51-1.8-.49-1.4.05-2.73.58-3.82,1.14l-.16-4.69c1.11-.62,2.87-1.2,4.86-1.26s3.68.36,4.84,1.3c1.22.96,1.73,2.35,1.79,4.23l.15,4.32c.02.61.22.97.71.95.19,0,.4-.07.61-.2l.14,4.14c-.55.38-1.46.63-2.48.66-1.1.04-2.22-.17-3.13-.9h-.05ZM261.17,181.21c-.24-.05-.6-.07-.78-.06-.7.02-1.34.35-1.31,1.14.03.73.6,1.05,1.22,1.02.32-.01.67-.11.94-.25l-.06-1.86ZM279.18,185.92c-.74.42-2.02.8-3.29.84-1.64.06-3.06-.47-3.96-1.42-.78-.83-1.37-2.09-1.45-4.67l-.15-4.29-1.97.07-.16-4.75,1.97-.07-.13-3.74,5.3-1.22.16,4.78,3.18-.11.16,4.75-3.18.11.13,3.87c.04,1.19.39,1.85,1.38,1.81.59-.02,1.28-.29,1.84-.55l.16,4.6ZM287.77,170.7c4.44-.15,7.77,3.15,7.92,7.56.15,4.41-2.94,7.93-7.38,8.08s-7.77-3.15-7.92-7.56c-.15-4.41,2.94-7.93,7.38-8.08ZM288.13,181.32c1.37-.05,2.33-1.3,2.27-2.88s-1.09-2.77-2.47-2.72-2.33,1.3-2.27,2.88,1.09,2.77,2.47,2.72ZM297.47,170.7l5.22-.18.06,1.61.05.03c.82-1.16,2.01-1.99,3.46-2.04.35-.01.73.04.97.09l.19,5.54c-.49-.11-1.03-.15-1.46-.13-1.13.04-2.09.38-2.95,1.35l.29,8.52-5.33.18-.51-14.97ZM333.73,171.22l-2.95,8.36,4.45,4.75-.02.06-6.52.22-1.06-1.12c-1.18.95-2.83,1.59-5.07,1.67-5.44.19-7.77-3.27-7.88-6.49-.08-2.47,1.17-4.46,3.12-5.71-.98-1.12-1.76-2.65-1.82-4.42-.11-3.2,2.33-5.99,6.15-6.12s6.45,2.49,6.56,5.69c.08,2.34-1.31,4.22-2.7,5.3l-.55.45,1.85,1.98,1.55-4.44,4.9-.17ZM321.05,176.44c-.82.45-1.01,1.25-.99,1.8.03.85.56,2.11,2.34,2.05.78-.03,1.31-.29,1.65-.64l-3-3.22ZM322.69,170.14c.63-.6.8-1.09.78-1.58-.03-.73-.48-1.29-1.18-1.27s-1.11.62-1.09,1.35c.02.49.25.91.75,1.5l.34.38.39-.38ZM340.21,169.23l5.41-.19,1.01,3.38c.46,1.54.86,2.99,1.23,4.41h.05c.25-1.41.52-2.91.84-4.48l.72-3.44,4.07-.14.95,3.38c.43,1.54.8,2.96,1.15,4.41h.05c.27-1.47.6-2.98.92-4.48l.77-3.44,5.01-.17-3.98,15.13-4.82.17-.68-2.38c-.43-1.54-.89-3.26-1.27-4.74h-.05c-.27,1.5-.62,3.22-.94,4.82l-.51,2.42-4.96.17-4.98-14.82ZM376.54,182.15c-1.38.78-3.33,1.27-5.13,1.33-4.69.16-7.99-2.65-8.15-7.4s3.15-8.09,6.92-8.22c3.26-.11,6.7,2.05,6.89,7.44.02.49.01,1.1-.03,1.52l-8.32.29c.57,1.56,1.85,2.07,3.28,2.02,1.24-.04,2.84-.52,4.4-1.55l.16,4.57ZM372.22,173.89c-.29-1.36-1.14-1.79-1.92-1.76-.94.03-1.57.72-1.77,1.89l3.69-.13ZM378.76,159.62l5.33-.18.31,8.89.05.03c.79-.7,1.88-1.04,2.93-1.08,3.12-.11,6.24,2.56,6.4,7.31.17,4.84-2.82,8.23-6.99,8.38-1.43.05-2.6-.28-3.45-.73l-3.77.86-.81-23.47ZM385.98,178.32c1.89-.06,2.48-1.73,2.42-3.28-.06-1.73-.88-2.96-2.42-2.9-.59.02-1.07.22-1.44.41l.19,5.54c.33.14.74.25,1.25.23ZM410.96,181c-.86.79-2.01,1.2-3.14,1.24-3.18.11-6.16-2.65-6.32-7.28s2.82-8.26,6.7-8.4c.81-.03,1.54.1,2.17.35l.05-.03-.29-8.34,5.33-.18.8,23.25-5.22.18-.03-.76-.05-.03ZM410.59,171.57c-.38-.17-.82-.28-1.33-.26-1.75.06-2.43,1.52-2.37,3.19s.89,3.05,2.42,2.99c.57-.02,1.1-.22,1.47-.45l-.19-5.48ZM431.38,180.27c-1.38.78-3.33,1.27-5.13,1.33-4.69.16-7.99-2.65-8.15-7.4s3.15-8.09,6.92-8.22c3.26-.11,6.7,2.05,6.89,7.44.02.49.01,1.1-.03,1.52l-8.32.29c.57,1.56,1.85,2.07,3.28,2.02,1.24-.04,2.84-.52,4.4-1.55l.16,4.57ZM427.05,172.01c-.29-1.36-1.14-1.79-1.92-1.76-.94.03-1.57.72-1.77,1.89l3.69-.13ZM433.99,175.4c2.09,1.18,4.48,1.58,5.5,1.55.65-.02.96-.22.95-.64-.03-.82-1.21-.6-3.22-1.17-2.59-.73-3.79-2.09-3.87-4.26-.08-3.23,2.49-5.27,5.99-5.39,1.59-.05,3.76.27,5.48,1.03l.16,4.69c-2.09-1.15-4.31-1.56-5.31-1.52-.65.02-.91.24-.9.61.03.76,1.12.54,3.17,1.11,2.59.73,3.84,1.97,3.92,4.25.09,3.35-2.57,5.36-6.15,5.48-1.56.05-3.81-.23-5.56-1.06l-.16-4.69ZM449.84,157.33c1.56-.05,2.85,1.3,2.91,3.04s-1.13,3.18-2.69,3.23-2.85-1.3-2.91-3.04,1.13-3.18,2.69-3.23ZM447.45,165.55l5.33-.18.51,14.97-5.33.18-.51-14.97ZM457.39,180.96c1.46.89,3.12,1.39,4.47,1.34,1.7-.06,2.61-.94,2.55-2.83l-.02-.64-.06-.06c-.71.66-1.85.98-2.8,1.01-2.99.1-6.15-2.44-6.31-7s2.72-7.92,6.79-8.06c1.21-.04,2.33.22,3.37.74l3.85-.89.51,14.79c.17,4.87-2.87,7.56-7.28,7.72-1.8.06-3.62-.3-4.88-.9l-.18-5.2ZM464.07,169.7c-.33-.17-.76-.25-1.19-.23-1.78.06-2.32,1.54-2.27,2.94.06,1.7.93,2.86,2.36,2.81.43-.01.86-.15,1.28-.38l-.18-5.14ZM472.07,164.7l5.22-.18.04,1.16.05.03c.84-.76,2.16-1.6,3.8-1.65,1.43-.05,2.66.52,3.44,1.31.89.91,1.37,2.24,1.45,4.43l.32,9.4-5.33.18-.29-8.49c-.02-.67-.18-1.15-.43-1.42-.28-.3-.63-.4-1.04-.39-.62.02-1.28.35-1.72.85l.33,9.56-5.33.18-.51-14.97ZM501.45,177.86c-1.38.78-3.33,1.27-5.13,1.33-4.69.16-7.99-2.65-8.15-7.4s3.15-8.09,6.92-8.22c3.26-.11,6.7,2.05,6.89,7.44.02.49.01,1.1-.03,1.52l-8.32.29c.57,1.56,1.85,2.07,3.28,2.02,1.24-.04,2.84-.52,4.4-1.55l.16,4.57ZM497.12,169.6c-.29-1.36-1.14-1.79-1.92-1.76-.94.03-1.57.72-1.77,1.89l3.69-.13ZM503.93,163.61l5.23-.18.06,1.61.05.03c.82-1.16,2.01-1.99,3.46-2.04.35-.01.73.04.97.09l.19,5.54c-.49-.11-1.03-.15-1.46-.13-1.13.04-2.09.38-2.95,1.35l.29,8.52-5.33.18-.51-14.97Z"/>
    </g>
    <polygon class="cls-3" points="413.82 102.02 402.91 100.7 406.37 111.26 397.41 104.93 395.6 116 390.65 106.11 384 115.16 384.19 103.97 374.22 108.93 379.5 99.01 368.49 98.74 377.66 92.35 368.14 86.91 379.1 85.53 373.24 76.17 383.47 80.11 382.62 68.97 389.79 77.33 394.14 66.96 396.6 77.82 405.15 70.6 402.34 81.48 413.14 79.06 405.7 87.46 416.27 90.4 405.9 94.4 413.82 102.02"/>
    <polygon class="cls-5" points="175.55 193.97 165.01 191.66 169.56 200.05 160.28 194.19 159.89 202.34 153.99 194.27 148.76 200.31 147.59 191.88 138.7 194.43 142.53 187.57 132.03 186.04 139.99 182.32 130.28 177.07 140.53 177.35 133.84 169.57 144.05 173.78 141.9 165.26 149.72 172.43 152.61 165.13 156.25 173.62 163.52 169.2 162.15 177.07 172.14 176.55 166.07 182 176.48 185.48 167.1 187.26 175.55 193.97"/>
  </g>
</svg>